1.9Hzlow3min_grf.mot
version=1
nRows=10
nColumns 19
inDegrees=yes
endheader
time	1_ground_force_vx	1_ground_force_vy	1_ground_force_vz	1_ground_force_px	1_ground_force_py	1_ground_force_pz	1_ground_torque_x	1_ground_torque_y	1_ground_torque_z	2_ground_force_vx	2_ground_force_vy	2_ground_force_vz	2_ground_force_px	2_ground_force_py	2_ground_force_pz	2_ground_torque_x	2_ground_torque_y	2_ground_torque_z
            0.005000	            4.786366	          192.229617	          -14.458101	           -0.228562	            0.006171	           -0.392992	            0.013707	            0.550502	           -0.041405	            5.585297	          206.765009	           16.549958	           -0.223879	            0.005634	           -0.686233	            0.001366	            0.050559	            0.004047
            0.005500	            4.558247	          189.344338	          -14.240620	           -0.228257	            0.006170	           -0.392769	            0.012383	            0.514362	           -0.038685	            5.783872	          203.636176	           16.257140	           -0.224556	            0.005631	           -0.685914	           -0.000579	           -0.020375	           -0.001627
            0.006000	            4.421946	          185.738015	          -14.026459	           -0.228160	            0.006173	           -0.393360	            0.013833	            0.581026	           -0.043878	            5.744936	          201.426729	           16.108491	           -0.224232	            0.005632	           -0.685955	            0.002431	            0.085242	            0.006817
            0.006500	            4.606967	          182.311234	          -13.628897	           -0.228220	            0.006175	           -0.394001	            0.015241	            0.603137	           -0.045088	            5.477732	          197.559078	           15.954028	           -0.224452	            0.005631	           -0.685823	            0.002057	            0.074192	            0.005991
            0.007000	            4.561615	          180.868706	          -13.543255	           -0.227341	            0.006169	           -0.392490	            0.015969	            0.633178	           -0.047412	            5.486290	          195.165827	           15.757774	           -0.224061	            0.005636	           -0.686900	            0.001601	            0.056938	            0.004597
            0.007500	            4.333972	          176.000309	          -13.288420	           -0.227810	            0.006181	           -0.395279	            0.013270	            0.538896	           -0.040688	            5.735078	          191.116094	           15.555506	           -0.223930	            0.005632	           -0.685582	           -0.002401	           -0.080005	           -0.006512
            0.008000	            4.198168	          175.276467	          -12.649188	           -0.227721	            0.006169	           -0.392383	            0.012652	            0.528227	           -0.038121	            5.464510	          188.169543	           15.310472	           -0.224132	            0.005633	           -0.685945	           -0.000095	           -0.003261	           -0.000265
            0.008500	            4.473396	          171.852259	          -12.847981	           -0.227387	            0.006170	           -0.392744	            0.015834	            0.608292	           -0.045477	            5.284901	          185.960593	           14.880314	           -0.223745	            0.005635	           -0.686305	            0.000814	            0.028642	            0.002292
            0.009000	            4.337418	          168.966212	          -12.447304	           -0.226982	            0.006172	           -0.393212	            0.016058	            0.625528	           -0.046081	            5.575367	          183.383014	           15.011780	           -0.224016	            0.005637	           -0.687110	           -0.000605	           -0.019908	           -0.001630
            0.009500	            4.522261	          165.900158	          -12.094052	           -0.227072	            0.006174	           -0.393636	            0.015621	            0.573074	           -0.041777	            5.490745	          180.806455	           14.486412	           -0.224136	            0.005638	           -0.687397	            0.001409	            0.046393	            0.003717
